<?xml version="1.0" encoding="UTF-8"?>
<svg version="1.1" viewBox="0 0 1340 278" xmlns="http://www.w3.org/2000/svg">
 <path transform="translate(788,10)" d="m0 0c7.3649-0.050966 14.73-0.085845 22.095-0.10986 2.5023-0.01002 5.0046-0.023639 7.5068-0.041016 3.6094-0.024427 7.2187-0.035645 10.828-0.044434 1.1077-0.010323 2.2154-0.020645 3.3567-0.031281 9.0934-0.0012955 17.953 0.17632 25.214 6.2266 5.9754 6.3168 7.7223 13.023 7.676 21.551-0.38908 8.6295-4.4022 15.186-8.676 22.449-1.1168 1.9571-2.2312 3.9155-3.3438 5.875-3.1879 5.5881-6.4207 11.149-9.6641 16.705-3.2056 5.503-6.3779 11.025-9.5547 16.545-5.3315 9.2504-10.705 18.476-16.096 27.691-4.1726 7.1463-8.2874 14.324-12.383 21.515-5.3532 9.3978-10.732 18.78-16.209 28.106-0.52473 0.89928-1.0495 1.7986-1.5901 2.7251-6.9533 11.78-6.9533 11.78-14.16 14.837-3.1133 0.36076-3.1133 0.36076-6.4644 0.34058-1.2609-2.2659e-4 -2.5217-4.5318e-4 -3.8208-6.8664e-4 -1.3607-0.015316-2.7214-0.030964-4.0821-0.046921-1.4039-0.0056014-2.8078-0.0098689-4.2117-0.012863-3.6793-0.011406-7.3583-0.040836-11.038-0.074112-3.7606-0.030792-7.5213-0.044413-11.282-0.059509-7.3674-0.03209-14.734-0.083234-22.102-0.14648 1.1686-2.9578 2.3463-5.8008 3.8906-8.582 0.55808-1.0072 0.55808-1.0072 1.1274-2.0347 0.40654-0.72461 0.81308-1.4492 1.2319-2.1958 0.43619-0.78133 0.87237-1.5627 1.3218-2.3677 4.1882-7.4636 8.5073-14.85 12.834-22.234 4.5613-7.7917 9.0604-15.618 13.532-23.461 10.549-18.494 21.176-36.941 31.938-55.312 0.36232-0.61893 0.72463-1.2379 1.0979-1.8755 3.2961-5.6283 6.5927-11.255 9.9958-16.82 0.62673-1.0264 0.62673-1.0264 1.2661-2.0735 1.0266-1.6713 2.0632-3.3364 3.1011-5.0007 3.915-7.1592 6.037-13.838 4.6641-22.043-1.6567-4.2147-3.7654-8.069-6-12-1.7617-3.2305-1.7617-3.2305-3-6l1-2z" fill="#223E8B"/>
 <path transform="translate(48.004 31.369)" d="m0 0c1.5584-0.010733 1.5584-0.010733 3.1483-0.021683 3.3989-0.016766 6.7964 0.0024444 10.195 0.02388 2.3817-8.2974e-4 4.7634-0.0032931 7.1451-0.007309 4.9769-0.0028497 9.9534 0.011764 14.93 0.039291 6.3606 0.034099 12.72 0.02805 19.081 0.0093374 4.9133-0.010597 9.8264-0.0016078 14.74 0.013385 2.3446 0.0051612 4.6893 0.0047253 7.0339-0.001545 3.2829-0.0054854 6.5647 0.01503 9.8475 0.042299 0.95665-0.0065259 1.9133-0.013052 2.8989-0.019775 8.3131 0.11668 15.613 2.1071 21.851 7.8032 8.0133 8.8259 8.2749 18.166 8.2703 29.599 0.0033586 1.1876 0.0067172 2.3752 0.010178 3.5988 0.0078519 3.2435 0.011176 6.4869 0.011816 9.7304 7.1214e-4 2.0266 0.0028494 4.0532 0.0054972 6.0797 0.0092354 7.0697 0.013337 14.139 0.012548 21.209-6.0229e-4 6.5928 0.0099838 13.185 0.025744 19.778 0.013056 5.663 0.018441 11.326 0.017801 16.989-2.553e-4 3.3814 0.0026147 6.7628 0.013178 10.144 0.0097396 3.7637 0.0069465 7.5272 8.9455e-4 11.291 0.0056195 1.1242 0.011239 2.2483 0.017029 3.4066-0.0041945 1.0206-0.008389 2.0412-0.012711 3.0927 5.4477e-4 0.89003 0.0010895 1.7801 0.0016508 2.6971-0.24889 2.1347-0.24889 2.1347-2.2489 4.1347-2.0471 0.24292-2.0471 0.24292-4.5352 0.23047-0.89139-0.0019336-1.7828-0.0038672-2.7012-0.0058594-1.399-0.018369-1.399-0.018369-2.8262-0.037109-0.9365-6.4454e-4 -1.873-0.0012891-2.8379-0.0019531-6.9594-0.045355-6.9594-0.045355-8.0996-1.1855v-51h-106v51c-1.5894 1.5894-3.239 1.1298-5.4375 1.1328-1.3419 0.0019336-1.3419 0.0019336-2.7109 0.0039062-0.94102-0.0038672-1.882-0.0077344-2.8516-0.011719-0.94102 0.0038672-1.882 0.0077344-2.8516 0.011719-0.89461-0.0012891-1.7892-0.0025781-2.7109-0.0039062-0.82629-0.0011279-1.6526-0.0022559-2.5039-0.003418-1.9336-0.12939-1.9336-0.12939-2.9336-1.1294-0.10476-1.6244-0.13964-3.2533-0.14717-4.8811-0.0071553-1.057-0.014311-2.1139-0.021683-3.2029-0.0040334-1.7547-0.0040334-1.7547-0.0081482-3.5449-0.0065712-1.2244-0.013142-2.4488-0.019913-3.7103-0.016377-3.3703-0.027972-6.7405-0.036206-10.111-0.0051481-2.1072-0.011224-4.2144-0.017511-6.3215-0.019068-6.5968-0.033291-13.194-0.041612-19.79-0.0097531-7.6063-0.036015-15.212-0.076501-22.819-0.030229-5.8821-0.044975-11.764-0.04828-17.646-0.0023445-3.5109-0.011224-7.0216-0.036461-10.532-0.027759-3.9257-0.023429-7.851-0.016485-11.777-0.01281-1.1536-0.02562-2.3072-0.038818-3.4958 0.059241-9.2099 2.2886-16.744 8.636-23.611 7.003-5.8225 15.045-7.2964 23.877-7.1882zm-9.0042 24.631c-5.3769 16.131-1 33.997-1 51h106v-50c-3.8946-3.094-3.8946-3.094-8.1813-3.3742-0.82575-0.0070143-1.6515-0.014029-2.5023-0.021255-0.89728 0.0076437-1.7946 0.015287-2.719 0.023163-0.95162-0.0036507-1.9032-0.0073013-2.8837-0.011063-3.1456-0.0081064-6.2908 0.0055046-9.4364 0.020096-2.1843 5.1855e-4 -4.3686 1.04e-6 -6.5528-0.0015106-4.5773 8.972e-5 -9.1544 0.010521-13.732 0.02861-5.8737 0.0227-11.747 0.023229-17.621 0.016482-4.5098-0.0033376-9.0195 0.0032859-13.529 0.013129-2.1662 0.003855-4.3324 0.004999-6.4986 0.0034142-3.0238-3.699e-4 -6.0472 0.012228-9.0709 0.028498-0.8993-0.0024774-1.7986-0.0049548-2.7252-0.0075073-0.82293 0.0070848-1.6459 0.01417-2.4937 0.021469-0.71473 0.0020529-1.4295 0.0041057-2.1658 0.0062208-2.2198 0.15856-2.2198 0.15856-4.8885 2.2545z" fill="#373737"/>
 <path transform="translate(319.29 59.612)" d="m0 0c0.79772-0.005257 1.5954-0.010514 2.4173-0.01593 2.6183-0.013127 5.2361-0.0044873 7.8544 0.0056763 1.8317-0.002023 3.6634-0.0049364 5.4951-0.0086975 3.8322-0.0044136 7.6642 0.0019759 11.496 0.016022 4.8968 0.017079 9.7932 0.0072526 14.69-0.010717 3.7808-0.010874 7.5615-0.0073746 11.342 3.8338e-4 1.8048 0.0019926 3.6096-4.2399e-4 5.4144-0.0074387 2.5292-0.0076733 5.0577 0.0040716 7.5869 0.020702 0.73635-0.0060727 1.4727-0.012145 2.2314-0.018402 7.9392 0.096047 14.473 2.7045 20.224 8.2567 6.5823 7.2164 7.6783 14.839 7.4493 24.283-0.0070747 1.1178-0.014149 2.2357-0.021439 3.3874-0.027767 3.5356-0.090475 7.0696-0.15434 10.605-0.025106 2.4114-0.047915 4.8229-0.068359 7.2344-0.054833 5.8808-0.13828 11.761-0.24414 17.641-2.2758 1.1379-3.5103 1.1234-6.0369 1.1203-1.2662 0.002062-1.2662 0.002062-2.5581 0.0041656-0.92788-0.0035953-1.8558-0.0071906-2.8118-0.010895-1.4635 2.1904e-4 -1.4635 2.1904e-4 -2.9565 4.4251e-4 -3.2357-6.9854e-4 -6.4714-0.0084882-9.7071-0.016312-2.2392-0.0018644-4.4783-0.0032882-6.7175-0.0042877-5.9019-0.0038235-11.804-0.013652-17.706-0.024704-6.0191-0.010218-12.038-0.014794-18.057-0.019836-11.816-0.010734-23.633-0.027809-35.449-0.048828 0.080762 3.7717 0.19361 7.5418 0.3125 11.312 0.022559 1.0719 0.045117 2.1437 0.068359 3.248 0.053174 1.542 0.053174 1.542 0.10742 3.1152 0.026184 0.94786 0.052368 1.8957 0.079346 2.8723 0.25678 2.4768 0.25678 2.4768 1.7121 4.2602 2.0913 1.4487 3.2263 1.572 5.7568 1.5837 0.81885 0.011093 1.6377 0.022186 2.4814 0.033615 1.342-0.0045092 1.342-0.0045092 2.7111-0.0091095 0.94493 0.0085854 1.8899 0.017171 2.8634 0.026016 3.1281 0.025126 6.2559 0.029444 9.3841 0.034042 2.1681 0.014302 4.3362 0.030058 6.5042 0.047211 5.7108 0.041914 11.422 0.066873 17.132 0.087494 9.1491 0.035778 18.298 0.096633 27.447 0.15849 3.2047 0.019162 6.4094 0.030841 9.6142 0.041431 1.9518 0.010207 3.9035 0.020564 5.8553 0.031097 0.89871 0.0010423 1.7974 0.0020847 2.7234 0.0031586 6.1334 0.04113 6.1334 0.04113 7.2468 1.1546 0.098808 1.4765 0.13079 2.9577 0.13281 4.4375 0.0012891 0.89461 0.0025781 1.7892 0.0039062 2.7109-0.0038672 0.94102-0.0077344 1.882-0.011719 2.8516 0.0038672 0.94102 0.0077344 1.882 0.011719 2.8516-0.0012891 0.89461-0.0025781 1.7892-0.0039062 2.7109-0.0011279 0.82629-0.0022559 1.6526-0.003418 2.5039-0.12939 1.9336-0.12939 1.9336-1.1294 2.9336-3.1236 0.11138-6.2254 0.15741-9.3499 0.16113-1.4732 0.0074474-1.4732 0.0074474-2.9762 0.015045-3.2676 0.014671-6.5352 0.021434-9.8028 0.026947-2.2663 0.0057497-4.5325 0.011507-6.7988 0.017273-4.7625 0.010526-9.5249 0.016357-14.287 0.019836-6.0942 0.0054721-12.188 0.029466-18.282 0.057972-4.6867 0.018657-9.3733 0.023834-14.06 0.025364-2.2458 0.0030227-4.4916 0.011038-6.7374 0.024185-3.1501 0.017116-6.2996 0.015166-9.4496 0.0086899-0.92344 0.0092148-1.8469 0.01843-2.7983 0.027924-7.8122-0.050136-14.205-1.6859-20.207-7.0094-0.71672-0.61102-1.4334-1.222-2.1719-1.8516-7.3046-8.8698-6.6838-18.85-6.6445-29.77-0.0052434-1.7792-0.011522-3.5584-0.018784-5.3377-0.010372-3.7177-0.0058889-7.4351 0.0087738-11.153 0.017181-4.7422-0.0063154-9.4831-0.04149-14.225-0.022059-3.6711-0.020512-7.342-0.012235-11.013 8.1489e-4 -1.7473-0.0059591-3.4947-0.020771-5.242-0.07567-10.541 0.038267-19.788 7.6406-27.909 6.3438-6.0973 12.576-8.3344 21.297-8.2627zm-6.2869 26.388v23h79v-25c-3.6756-2.4504-5.5008-2.264-9.8865-2.2905-0.69627-0.0067172-1.3925-0.013434-2.1099-0.020355-2.3021-0.019001-4.6038-0.022905-6.906-0.025055-1.6004-0.0064261-3.2008-0.013154-4.8012-0.020172-3.355-0.011978-6.7098-0.01568-10.065-0.014496-4.2988 2.0332e-4 -8.597-0.027109-12.896-0.061544-3.3054-0.022237-6.6107-0.026294-9.9162-0.025236-1.5848-0.0023603-3.1697-0.011208-4.7545-0.026665-2.217-0.019599-4.4325-0.013848-6.6495-0.0017891-1.2611-0.00285-2.5223-0.0057001-3.8216-0.0086365-3.745 0.25778-3.745 0.25778-7.1942 4.4945z" fill="#363636"/>
 <path transform="translate(1300.9 21.757)" d="m0 0c0.77279 0.0041089 1.5456 0.0082178 2.3418 0.012451 0.84176 0.0019336 1.6835 0.0038672 2.5508 0.0058594 1.3206 0.018369 1.3206 0.018369 2.668 0.037109 1.3206 9.668e-4 1.3206 9.668e-4 2.668 0.0019531 6.5512 0.045146 6.5512 0.045146 8.832 1.1855 0.023327 20.453 0.040978 40.906 0.051812 61.359 0.0051633 9.496 0.012207 18.992 0.023627 28.488 0.0099457 8.2736 0.016414 16.547 0.018649 24.821 0.0013073 4.3836 0.0043944 8.7672 0.011642 13.151 0.0067584 4.1211 0.0088873 8.2422 0.0073776 12.363 2.764e-4 1.517 0.0022826 3.034 0.0060978 4.551 0.0049345 2.0622 0.0037937 4.1243 0.001049 6.1866 9.2179e-4 1.1569 0.0018436 2.3137 0.0027933 3.5056-0.12305 2.575-0.12305 2.575-1.123 3.575-3.113 0.11672-6.2041 0.16804-9.3181 0.177-1.4684 0.0098568-1.4684 0.0098568-2.9665 0.019913-3.258 0.019798-6.5159 0.031414-9.774 0.041367-1.1119 0.0040755-2.2238 0.0081511-3.3695 0.01235-5.8924 0.020895-11.785 0.035178-17.677 0.044535-6.0761 0.011033-12.152 0.045387-18.228 0.085172-4.6782 0.026211-9.3563 0.034524-14.035 0.03811-2.2386 0.0048593-4.4772 0.016455-6.7157 0.035038-3.145 0.024472-6.289 0.023411-9.4341 0.016485-1.3744 0.019215-1.3744 0.019215-2.7765 0.038818-8.2041-0.065439-15.438-2.1462-21.581-7.7588-6.5104-7.1553-8.2353-14.459-8.2861-23.968-0.0049649-0.70804-0.0099298-1.4161-0.015045-2.1456-0.014551-2.332-0.021412-4.664-0.026947-6.996-0.0042411-1.2009-0.0042411-1.2009-0.0085678-2.426-0.014965-4.2379-0.024211-8.4757-0.028542-12.714-0.0054762-4.3587-0.029494-8.7171-0.057972-13.076-0.018706-3.3682-0.023836-6.7364-0.025364-10.105-0.0030099-1.6058-0.010982-3.2117-0.024185-4.8174-0.15622-20.462-0.15622-20.462 7.4728-28.816 0.70383-0.80051 1.4077-1.601 2.1328-2.4258 9.1221-7.5238 19.101-6.7896 30.34-6.6523 1.8032 0.0074708 3.6063 0.01316 5.4095 0.017151 4.72 0.01519 9.4395 0.054414 14.159 0.098816 4.8266 0.041096 9.6533 0.059226 14.48 0.079346 9.4514 0.042754 18.902 0.11092 28.354 0.19531-0.010474-1.0801-0.020947-2.1601-0.031738-3.2729-0.036144-3.9993-0.059142-7.9986-0.078125-11.998-0.01007-1.7324-0.023728-3.4649-0.041016-5.1973-0.024203-2.4872-0.035593-4.9741-0.044434-7.4614-0.010323-0.77713-0.020645-1.5543-0.031281-2.3549-3.997e-4 -1.9066 0.10427-3.8127 0.22659-5.7154 2-2 2-2 3.9395-2.2429zm-82.939 63.243c-0.61043 3.1434-0.61043 3.1434-0.51758 6.8105-0.0070093 0.68812-0.014019 1.3762-0.02124 2.0852-0.017606 2.2747-0.0059494 4.5482 0.0075684 6.823-0.0026942 1.5804-0.006576 3.1607-0.011597 4.7411-0.0058986 3.3122 0.0026789 6.624 0.021362 9.9362 0.02279 4.2474 0.0096691 8.4939-0.01429 12.741-0.014449 3.2634-0.0098564 6.5266 5.1117e-4 9.79 0.0026699 1.5661-6.1173e-4 3.1322-0.0099182 4.6983-0.010151 2.1885 0.0053117 4.3754 0.027603 6.5639 0.0031824 1.2456 0.0063648 2.4912 0.0096436 3.7745 0.24624 3.052 0.24624 3.052 2.1075 4.9394 3.231 1.4761 5.7719 1.4635 9.3245 1.4531 0.68827 0.0020444 1.3765 0.0040888 2.0857 0.0061951 2.2692 0.0030018 4.5376-0.01545 6.8067-0.034515 1.5789-0.0030587 3.1579-0.004934 4.7368-0.0056763 3.3062-0.0045992 6.6121-0.019011 9.9182-0.041199 4.2393-0.028305 8.4783-0.039214 12.718-0.043682 3.2591-0.0041552 6.5181-0.013973 9.7771-0.025875 1.5633-0.0056992 3.1266-0.010459 4.69-0.014267 2.1831-0.0068698 4.3661-0.020505 6.5492-0.036293 1.2426-0.006828 2.4852-0.013656 3.7654-0.020691 3.0763-0.0050217 3.0763-0.0050217 6.0293-1.1404 1.4523-2.9047 1.1434-5.4523 1.1611-8.697 0.0049649-0.68798 0.0099298-1.376 0.015045-2.0848 0.014626-2.2798 0.021424-4.5595 0.026947-6.8393 0.0057504-1.5818 0.011508-3.1636 0.017273-4.7454 0.010511-3.318 0.016353-6.636 0.019836-9.9541 0.0054894-4.2551 0.029526-8.5099 0.057972-12.765 0.018606-3.2676 0.023831-6.5352 0.025364-9.8028 0.0030308-1.5689 0.011074-3.1378 0.024185-4.7067 0.017022-2.1931 0.01519-4.3854 0.0086899-6.5786 0.0036456-1.2486 0.0072913-2.4972 0.011047-3.7837-0.15705-2.9627-0.15705-2.9627-1.4594-4.9451-2.9254-1.6828-5.4386-1.4794-8.7946-1.4858-1.0444-0.0078854-1.0444-0.0078854-2.1099-0.01593-2.3022-0.013206-4.6037-0.0044592-6.906 0.0056763-1.6004-0.0020208-3.2008-0.0049323-4.8012-0.0086975-3.355-0.0044244-6.7098 0.0020104-10.065 0.016022-4.2988 0.017078-8.597 0.0072603-12.896-0.010717-3.3054-0.010847-6.6107-0.0073873-9.9162 3.8338e-4 -1.5848 0.0020003-3.1697-4.5131e-4 -4.7545-0.0074387-2.2168-0.0076276-4.4327 0.0040076-6.6495 0.020702-1.2611 0.0023868-2.5223 0.0047736-3.8216 0.0072327-3.4899 0.41621-4.9348 0.68559-7.1942 3.381z" fill="#383838"/>
 <path transform="translate(756.25,15)" d="m0 0c5.5523 5.1716 9.0728 13.041 9.375 20.562-0.80907 10.237-5.7158 18.873-10.938 27.5-1.2586 2.118-2.5164 4.2365-3.7734 6.3555-0.97018 1.6269-0.97018 1.6269-1.96 3.2866-3.1795 5.3619-6.2845 10.766-9.3916 16.17-1.259 2.185-2.5181 4.3699-3.7773 6.5547-0.93755 1.6276-0.93755 1.6276-1.894 3.2881-3.7506 6.5095-7.5061 13.016-11.261 19.523-3.1535 5.4646-6.3043 10.931-9.45 16.4-6.1096 10.618-12.237 21.227-18.43 31.797-0.53706 0.92394-1.0741 1.8479-1.6274 2.7998-0.49935 0.84853-0.9987 1.6971-1.5132 2.5713-0.43345 0.74049-0.86689 1.481-1.3135 2.2439-1.2843 1.9301-2.5272 3.4497-4.2959 4.9475h-2c-0.49645-0.88015-0.49645-0.88015-1.0029-1.7781-8.4164-14.917-8.4164-14.917-16.902-29.795-1.498-2.6166-2.9861-5.2386-4.4741-7.8608-1.5435-2.7129-3.1166-5.394-4.7734-8.0391-0.56848-0.93715-1.137-1.8743-1.7227-2.8398-0.7077-1.1079-0.7077-1.1079-1.4297-2.2383-1.4288-5.033 0.88126-9.8765 3.1953-14.324 0.77627-1.3808 1.5634-2.7555 2.3594-4.125 0.43546-0.76635 0.87092-1.5327 1.3196-2.3223 1.4645-2.5666 2.9453-5.123 4.4304-7.6777 0.52707-0.90879 1.0541-1.8176 1.5972-2.7539 2.8894-4.9762 5.7913-9.945 8.6997-14.91 3.7395-6.3888 7.4431-12.798 11.141-19.211 0.61714-1.0665 1.2343-2.1331 1.8701-3.2319 2.9263-5.0628 5.836-10.133 8.6881-15.238 0.99672-1.782 1.9988-3.5609 3.0026-5.339 1.2534-2.2241 2.4969-4.4539 3.728-6.6904 5.1831-9.155 11.631-17.783 22.031-21.204 11.231-2.1131 20.867-0.34528 30.492 5.5781z" fill="#223F8B"/>
 <path transform="translate(905.29 59.612)" d="m0 0c0.79772-0.005257 1.5954-0.010514 2.4173-0.01593 2.6183-0.013127 5.2361-0.0044873 7.8544 0.0056763 1.8317-0.002023 3.6634-0.0049364 5.4951-0.0086975 3.8322-0.0044136 7.6642 0.0019759 11.496 0.016022 4.8968 0.017079 9.7932 0.0072526 14.69-0.010717 3.7808-0.010874 7.5615-0.0073746 11.342 3.8338e-4 1.8048 0.0019926 3.6096-4.2399e-4 5.4144-0.0074387 2.5292-0.0076733 5.0577 0.0040716 7.5869 0.020702 0.73635-0.0060727 1.4727-0.012145 2.2314-0.018402 8.2009 0.099213 14.423 2.9281 20.423 8.5042 5.73 6.1874 6.91 12.295 6.9229 20.481 0.0074474 1.1374 0.0074474 1.1374 0.015045 2.2978 0.014585 2.5046 0.021418 5.0091 0.026947 7.5137 0.0057552 1.7463 0.011513 3.4926 0.017273 5.239 0.0105 3.6617 0.016349 7.3234 0.019836 10.985 0.0054775 4.6783 0.029494 9.3563 0.057972 14.034 0.018681 3.6084 0.023835 7.2167 0.025364 10.825 0.0030156 1.7239 0.011007 3.4478 0.024185 5.1716 0.017173 2.4193 0.015153 4.838 0.0086899 7.2574 0.0092148 0.70366 0.01843 1.4073 0.027924 2.1323-0.063019 7.5808-2.5322 13.794-7.6383 19.359-6.7222 6.1808-12.635 7.7531-21.601 7.7666-1.1813 0.0074474-1.1813 0.0074474-2.3864 0.015045-2.602 0.014589-5.2039 0.021419-7.8059 0.026947-1.8136 0.0057549-3.6272 0.011513-5.4407 0.017273-3.803 0.010501-7.6059 0.016349-11.409 0.019836-4.8599 0.0054781-9.7195 0.029495-14.579 0.057972-3.7474 0.018676-7.4946 0.023835-11.242 0.025364-1.7909 0.0030165-3.5817 0.011011-5.3725 0.024185-2.5127 0.017163-5.0248 0.015155-7.5376 0.0086899-0.73171 0.0092148-1.4634 0.01843-2.2173 0.027924-8.6045-0.068932-14.93-3.2743-21.17-9.1383-6.3178-7.151-7.0989-15.791-7.1296-25.032-0.0063798-1.3086-0.01276-2.6172-0.019333-3.9654-0.0015292-1.4122-0.0026429-2.8243-0.0033722-4.2365-0.003219-1.4682-0.0065836-2.9364-0.010086-4.4046-0.0059686-3.0705-0.0078423-6.1409-0.0072479-9.2114 1.0146e-4 -3.9101-0.013544-7.82-0.030772-11.73-0.011188-3.0311-0.013145-6.0622-0.012618-9.0934-0.0011702-1.4403-0.005537-2.8806-0.013332-4.3209-0.060718-12.377-0.047932-23.579 8.8787-32.974 6.2396-5.7068 12.246-7.7346 20.65-7.6655zm-4.693 23.998c-2.1246 3.1857-2.1013 5.2959-2.1114 9.1145-0.0070093 0.66716-0.014019 1.3343-0.02124 2.0217-0.017568 2.1996-0.0059632 4.3979 0.0075684 6.5975-0.0026953 1.5317-0.006578 3.0634-0.011597 4.5951-0.0058934 3.2079 0.0026621 6.4153 0.021362 9.6232 0.02279 4.1094 0.0096661 8.2179-0.01429 12.327-0.014463 3.1622-0.0098499 6.3242 5.1117e-4 9.4864 0.002666 1.515-5.9805e-4 3.0301-0.0099182 4.5451-0.010174 2.1188 0.005344 4.2359 0.027603 6.3546 0.0031824 1.2048 0.0063648 2.4097 0.0096436 3.651 0.29739 3.1151 0.29739 3.1151 2.1075 5.4645 3.2476 2.177 5.4271 2.0974 9.3245 2.0791 0.68827 0.0021904 1.3765 0.0043808 2.0857 0.0066376 2.2694 0.0023069 4.5375-0.023918 6.8067-0.050827 1.5789-0.0049249 3.1579-0.0082231 4.7368-0.009964 3.3063-0.0076357 6.6121-0.028183 9.9182-0.059128 4.2393-0.039607 8.4782-0.057615 12.718-0.067309 4.0425-0.0099711 8.0849-0.029856 12.127-0.051099 0.77212-0.0033957 1.5442-0.0067915 2.3398-0.01029 2.1831-0.011573 4.3661-0.030093 6.5492-0.050989 1.2426-0.0098442 2.4852-0.019688 3.7654-0.029831 3.0762-0.012901 3.0762-0.012901 6.0293-1.1472 1.4651-2.9303 1.1435-5.5327 1.1611-8.8047 0.0049649-0.69934 0.0099298-1.3987 0.015045-2.1192 0.014625-2.317 0.021423-4.634 0.026947-6.9511 0.0057499-1.6066 0.011508-3.2132 0.017273-4.8198 0.01051-3.3693 0.016353-6.7386 0.019836-10.108 0.0054939-4.3247 0.029541-8.6491 0.057972-12.974 0.018588-3.3182 0.02383-6.6363 0.025364-9.9546 0.0030344-1.5949 0.011089-3.1897 0.024185-4.7845 0.016985-2.2268 0.0152-4.4529 0.0086899-6.6797 0.0036456-1.2686 0.0072913-2.5372 0.011047-3.8442-0.12127-0.97695-0.24255-1.9539-0.36749-2.9604-3.6756-2.4504-5.5008-2.264-9.8865-2.2905-0.69627-0.0067172-1.3925-0.013434-2.1099-0.020355-2.3021-0.019001-4.6038-0.022905-6.906-0.025055-1.6004-0.0064261-3.2008-0.013154-4.8012-0.020172-3.355-0.011978-6.7098-0.01568-10.065-0.014496-4.2988 2.0332e-4 -8.597-0.027109-12.896-0.061544-3.3054-0.022237-6.6107-0.026294-9.9162-0.025236-1.5848-0.0023603-3.1697-0.011208-4.7545-0.026665-2.217-0.019599-4.4325-0.013848-6.6495-0.0017891-1.2611-0.00285-2.5223-0.0057001-3.8216-0.0086365-3.2234 0.2687-3.2234 0.2687-5.6004 2.1046z" fill="#373737"/>
 <path transform="translate(1066.4 59.58)" d="m0 0c0.79465-0.0084695 1.5893-0.016939 2.408-0.025665 2.6033-0.023225 5.2059-0.024396 7.8092-0.023163 1.8255-0.0071104 3.651-0.014811 5.4765-0.023071 3.8178-0.013412 7.6354-0.015029 11.453-0.0091553 4.8711 0.0058924 9.7411-0.024692 14.612-0.065117 3.7681-0.025961 7.5359-0.028747 11.304-0.025108 1.7948-0.0016834 3.5896-0.01125 5.3843-0.029144 19.968-0.17719 19.968-0.17719 28.303 7.5968 7.46 7.7894 8.9907 16.211 9.026 26.81 0.0063798 1.3086 0.01276 2.6172 0.019333 3.9654 0.0015292 1.4122 0.0026429 2.8243 0.0033722 4.2365 0.003219 1.4682 0.0065836 2.9364 0.010086 4.4046 0.0059686 3.0705 0.0078422 6.1409 0.0072479 9.2114-1.0146e-4 3.9101 0.013544 7.82 0.030772 11.73 0.011188 3.0311 0.013145 6.0622 0.012618 9.0934 0.0011702 1.4403 0.005537 2.8806 0.013332 4.3209 0.061024 12.44-0.0073351 23.47-8.8436 32.974-6.3402 5.8915-13.273 7.7361-21.723 7.6655-0.78972 0.005257-1.5794 0.010514-2.3931 0.01593-2.5852 0.0131-5.1699 0.0044988-7.7551-0.0056763-1.8103 0.0020234-3.6205 0.0049371-5.4308 0.0086975-3.7833 0.0044096-7.5664-0.0019643-11.35-0.016022-4.8375-0.017103-9.6745-0.0072348-14.512 0.010717-3.7345 0.010864-7.4688 0.0073796-11.203-3.8338e-4 -1.7833-0.001994-3.5666 4.2915e-4 -5.3499 0.0074387-2.4958 0.0076597-4.9908-0.0040518-7.4866-0.020702-0.72903 0.0060727-1.4581 0.012145-2.2092 0.018402-7.3999-0.090984-13.195-2.8478-18.986-7.4066-6.0316-6.7226-8.2979-12.791-8.3064-21.866-0.0083235-0.7651-0.016647-1.5302-0.025223-2.3185-0.023994-2.5166-0.03286-5.033-0.039474-7.5497-0.0089755-1.7611-0.018098-3.5222-0.027359-5.2833-0.016465-3.6885-0.024185-7.3769-0.027084-11.065-0.0053763-4.7052-0.043036-9.4095-0.088744-14.114-0.02988-3.6376-0.036982-7.2751-0.037982-10.913-0.0041818-1.7334-0.016533-3.4668-0.037518-5.2001-0.11741-10.538 0.020559-19.651 7.5505-27.815 6.4481-6.3081 13.621-8.3292 22.408-8.294zm-5.7778 24.035c-2.111 3.165-2.0858 5.2245-2.0767 9.018-0.0037967 0.6574-0.0075934 1.3148-0.011505 1.9921-0.0073931 2.1672 0.013957 4.333 0.036407 6.5001 0.0023853 1.5093 0.0032896 3.0186 0.0027771 4.5278 0.0031258 3.1608 0.019674 6.3212 0.046539 9.4819 0.03398 4.0487 0.041628 8.0969 0.04011 12.146 5.4424e-4 3.1159 0.01152 6.2316 0.026003 9.3474 0.0063578 1.4927 0.010305 2.9854 0.011787 4.4781 0.004344 2.0873 0.021868 4.174 0.043194 6.2612 0.0076236 1.1871 0.015247 2.3741 0.023102 3.5972 0.25916 2.9418 0.56751 4.64 2.2674 7.0356 3.4307 1.1436 6.0839 1.134 9.7029 1.1453 0.67676 0.0033586 1.3535 0.0067172 2.0508 0.010178 2.2371 0.0094986 4.4741 0.011452 6.7112 0.012527 1.5555 0.0032132 3.1111 0.0065773 4.6666 0.010086 3.2608 0.0059884 6.5215 0.0078402 9.7823 0.0072479 4.1776-1.0165e-4 8.355 0.013555 12.532 0.030772 3.2128 0.01112 6.4255 0.013147 9.6383 0.012618 1.5402 0.00118 3.0803 0.0056028 4.6205 0.013332 2.1543 0.0098003 4.3083 0.006922 6.4627 8.9455e-4 1.2256 0.001425 2.4512 0.00285 3.714 0.0043182 2.9938-0.23737 4.6922-0.50823 7.1183-2.2472 1.1181-3.3542 1.1338-5.8923 1.1453-9.4275 0.0033586-0.6475 0.0067172-1.295 0.010178-1.9621 0.0094961-2.1397 0.011452-4.2793 0.012527-6.419 0.0032133-1.4883 0.0065774-2.9766 0.010086-4.4649 0.0059878-3.1195 0.0078402-6.2391 0.0072479-9.3586-1.0165e-4 -3.996 0.013555-7.9918 0.030772-11.988 0.011122-3.0738 0.013147-6.1475 0.012618-9.2213 0.0011797-1.4732 0.005601-2.9464 0.013332-4.4195 0.009804-2.0609 0.0069205-4.1215 8.9455e-4 -6.1825 0.001425-1.1723 0.00285-2.3446 0.0043182-3.5525-0.24073-2.9254-0.62355-4.5865-2.2472-7.0044-2.9212-1.4606-5.5106-1.1516-8.7729-1.177-1.0442-0.0098568-1.0442-0.0098568-2.1095-0.019913-2.3074-0.019737-4.6148-0.031396-6.9223-0.041367-0.78752-0.0040755-1.575-0.008151-2.3864-0.01235-4.1673-0.020861-8.3345-0.035163-12.502-0.044535-4.3067-0.011072-8.6128-0.04548-12.919-0.085172-3.3097-0.026128-6.6193-0.034517-9.9291-0.03811-1.5876-0.0048749-3.1753-0.016515-4.7628-0.035038-2.2218-0.024315-4.4423-0.023442-6.6642-0.016485-1.2642-0.0058662-2.5283-0.011732-3.8308-0.017776-3.2306 0.26009-3.2306 0.26009-5.6101 2.1026z" fill="#363636"/>
 <path transform="translate(451,60)" d="m0 0c24.111-2.0756 24.111-2.0756 29.859 2.2852 2.8935 2.8979 4.9813 6.2503 7.1406 9.7148 1.4956 1.8746 3.0158 3.7298 4.5625 5.5625 0.71801 0.89203 1.436 1.7841 2.1758 2.7031 3.2089 3.8796 6.6119 7.5686 10.02 11.273 2.508 2.7527 4.8974 5.5691 7.2422 8.4609 3.8149-1.514 5.6308-3.73 8.125-6.9375 3.1704-3.9864 6.4188-7.821 9.875-11.562 4.1622-4.5182 8.0706-9.1854 11.895-13.992 0.6948-0.82758 1.3896-1.6552 2.1055-2.5078 0.64711-0.92426 1.2942-1.8485 1.9609-2.8008 4.8961-3.5431 9.9834-2.7254 15.852-2.5117 1.1698 0.022559 2.3396 0.045117 3.5449 0.068359 2.8822 0.05882 5.7617 0.14097 8.6426 0.24414 0.64307 2.2974 0.64307 2.2974 1 5-1.7896 2.5347-3.5181 4.6318-5.625 6.875-1.21 1.3395-2.4196 2.6793-3.6289 4.0195-0.62407 0.68143-1.2481 1.3629-1.8911 2.0649-2.8643 3.1508-5.6391 6.3766-8.4175 9.603-1.0779 1.245-2.156 2.4898-3.2344 3.7344-1.0678 1.2343-2.1355 2.4687-3.2031 3.7031-0.53045 0.61295-1.0609 1.2259-1.6074 1.8574-6.2817 7.2659-12.468 14.58-18.393 22.143 2.4009 4.3609 5.3599 7.9078 8.625 11.625 1.0895 1.2557 2.178 2.5122 3.2656 3.7695 0.53303 0.61569 1.0661 1.2314 1.6152 1.8657 2.7334 3.1827 5.3724 6.4408 8.0176 9.6968 3.1425 3.8612 6.3095 7.7019 9.4766 11.543 5.3473 6.4886 10.683 12.987 16 19.5l-2 4c-3.9987 0.26343-7.9952 0.42186-12 0.5625-1.1254 0.07541-2.2507 0.15082-3.4102 0.22852-8.2621 0.21742-8.2621 0.21742-12.031-2.6455-2.0422-2.2872-3.8174-4.6238-5.5583-7.1455-1.2046-1.4347-1.2046-1.4347-2.4336-2.8984-0.66129-0.81727-1.3226-1.6345-2.0039-2.4766-0.75281-0.92684-1.5056-1.8537-2.2812-2.8086-0.75281-0.92941-1.5056-1.8588-2.2812-2.8164-6.2827-7.7095-12.622-15.37-19-23-5.5653 5.9987-10.946 12.039-16.008 18.473-2.8564 3.6237-5.7695 7.1934-8.7695 10.699-2.3058 2.7677-2.3058 2.7677-3.9141 5.9688-2.1987 3.704-3.6068 5.5787-7.3086 7.8594-8.2326 1.37-16.722 0.67147-25 0l-2-4c4.7756-5.884 9.593-11.725 14.5-17.5 4.0419-4.7593 8.0298-9.5571 11.969-14.402 2.0057-2.4632 4.0321-4.9087 6.0625-7.3516 0.6235-0.75185 1.247-1.5037 1.8894-2.2783 1.2336-1.4869 2.4693-2.972 3.7075-4.4551 3.2102-3.8756 6.1712-7.765 8.8718-12.013-0.54527-0.59426-1.0905-1.1885-1.6523-1.8008-4.0715-4.4752-8.0424-8.9947-11.848-13.699-2.9081-3.5948-5.8854-7.0826-9-10.5-3.9111-4.2913-7.5799-8.738-11.223-13.258-3.0039-3.6171-6.1953-7.0419-9.4297-10.453-1.923-2.3824-2.9895-4.3565-3.8477-7.2891l1-2z" fill="#393939"/>
 <path transform="translate(219.5,21.75)" d="m0 0c0.88043-0.020625 1.7609-0.04125 2.668-0.0625 1.2626-0.0077344 1.2626-0.0077344 2.5508-0.015625 0.77279-0.0093457 1.5456-0.018691 2.3418-0.02832 0.64002 0.11763 1.28 0.23525 1.9395 0.35645 2.2344 3.3516 2.2562 4.4549 2.2785 8.372 0.011163 1.1148 0.022327 2.2296 0.033829 3.3782 0.0021602 1.2235 0.0043204 2.447 0.006546 3.7076 0.010046 1.2879 0.020091 2.5758 0.030441 3.9028 0.027331 3.5328 0.042459 7.0655 0.055428 10.598 0.015617 3.6916 0.042412 7.3831 0.068031 11.075 0.046813 6.991 0.083545 13.982 0.11667 20.973 0.038203 7.9589 0.087618 15.918 0.13798 23.876 0.10336 16.372 0.19261 32.745 0.2726 49.117 2.9219 0.97395 5.0181 1.1785 8.0703 1.2812 0.9784 0.037383 1.9568 0.074766 2.9648 0.11328 2.0677 0.070579 4.1354 0.14089 6.2031 0.21094 0.97582 0.037383 1.9516 0.074766 2.957 0.11328 0.89735 0.030293 1.7947 0.060586 2.7192 0.091797 2.0854 0.18945 2.0854 0.18945 3.0854 1.1895 0.098808 1.4765 0.13079 2.9577 0.13281 4.4375 0.0019336 1.3419 0.0019336 1.3419 0.0039062 2.7109-0.0038672 0.94102-0.0077344 1.882-0.011719 2.8516 0.0058008 1.4115 0.0058008 1.4115 0.011719 2.8516-0.0019336 1.3419-0.0019336 1.3419-0.0039062 2.7109-0.0011279 0.82629-0.0022559 1.6526-0.003418 2.5039-0.12939 1.9336-0.12939 1.9336-1.1294 2.9336-4.4925 0.31294-8.9979 0.27867-13.5 0.3125-1.2555 0.029004-2.5111 0.058008-3.8047 0.087891-9.2889 0.063289-15.293-1.4371-22.945-6.5879-5.6148-5.7424-8.8776-12.325-8.8703-20.374-0.0013747-1.1569-0.0027493-2.3137-0.0041656-3.5056 0.0035953-1.2703 0.0071906-2.5405 0.010895-3.8493 2.8205e-4 -1.3502 1.2379e-4 -2.7004-4.4251e-4 -4.0505-2.8727e-4 -3.6671 0.0055982-7.3341 0.012574-11.001 0.0062452-3.8317 0.0068383-7.6634 0.0080254-11.495 0.0031099-7.2566 0.011319-14.513 0.021349-21.77 0.011172-8.2611 0.016674-16.522 0.021695-24.783 0.010457-16.994 0.028049-33.989 0.050324-50.983 3.5401-1.7701 7.6007-1.2272 11.5-1.25z" fill="#3B3B3B"/>
 <path transform="translate(596.79 8.8389)" d="m0 0c1.4227-0.014411 1.4227-0.014411 2.8741-0.029114 1.0198-0.0042499 2.0396-0.0084998 3.0903-0.012878 1.0582-0.0057001 2.1165-0.0114 3.2068-0.017273 2.241-0.0094438 4.4819-0.015982 6.7229-0.019836 3.4039-0.0096702 6.8072-0.040685 10.211-0.072266 2.1823-0.0065341 4.3646-0.011783 6.5469-0.015625 1.0077-0.012347 2.0153-0.024694 3.0535-0.037415 9.8723 0.030628 18.714 1.9194 26.091 8.8616 4.9451 5.2352 6.9141 10.748 7.8477 17.816-1.1975 10.093-5.7833 18.693-11 27.25-1.2439 2.0844-2.4874 4.169-3.7305 6.2539-0.92885 1.5452-0.92885 1.5452-1.8765 3.1216-2.7851 4.6586-5.4963 9.359-8.2056 14.062-0.90344 1.5626-1.8071 3.1251-2.7109 4.6875-0.63164 1.0931-1.2633 2.1862-1.9141 3.3125-3.8339-1.278-4.1064-2.4745-6.0039-5.9688-0.57033-1.037-1.1407-2.0739-1.7283-3.1423-0.60401-1.1183-1.208-2.2367-1.8303-3.3889-1.272-2.3146-2.5455-4.6284-3.8203-6.9414-0.62165-1.132-1.2433-2.2639-1.8838-3.4302-2.1584-3.8955-4.392-7.74-6.6709-11.566-4.9491-8.3332-9.7878-16.729-14.623-25.129-0.60272-1.0468-1.2054-2.0936-1.8264-3.1721-0.59087-1.0295-1.1817-2.059-1.7905-3.1196-1.2624-2.1761-2.5426-4.3418-3.8369-6.499-0.64115-1.072-1.2823-2.144-1.9429-3.2485-0.5837-0.96446-1.1674-1.9289-1.7688-2.9226-1.2742-2.4719-1.2742-2.4719-1.2742-5.4719 2.9946-0.86282 5.6811-1.1356 8.7935-1.1611z" fill="#3F7EC3"/>
 <path transform="translate(725,245)" d="m0 0h567v5h-567v-5z" fill="#343434"/>
 <path transform="translate(44,245)" d="m0 0h567v5h-567v-5z" fill="#343434"/>
 <path transform="translate(681,227)" d="m0 0c18.773 0 18.773 0 23.777 4.6523 5.3538 5.9584 5.5733 10.926 5.5 18.824-0.49143 6.2433-2.6531 10.306-7.2773 14.461-7.1124 4.8898-12.532 3.0625-22 3.0625v-41zm5 5v31c9.251 0.18264 9.251 0.18264 15.75-4.5 2.7031-3.2438 2.4447-6.8457 2.5-10.875 0.025781-1.1215 0.051562-2.243 0.078125-3.3984-0.48368-4.7562-2.6745-8.1819-6.3281-11.227-3.896-1.4743-3.896-1.4743-12-1z" fill="#464646"/>
 <path transform="translate(644,227)" d="m0 0h30v5h-12v36h-6v-36h-12v-5z" fill="#565656"/>
 <path transform="translate(626,227)" d="m0 0h6v36h17v5h-23v-41z" fill="#505050"/>
</svg>
